# Blender 3.5.0
# www.blender.org
mtllib laseremitter.mtl
o laser_emitter
v 0.000000 0.722493 0.734213
v -0.000000 -0.722490 0.741505
v -0.000000 -0.722490 -0.734118
v 0.000000 -0.493770 0.454877
v 0.000000 -1.608493 0.190320
v 0.000000 -0.494033 -0.408222
v 0.000000 -1.608442 -0.130996
v -0.977289 -0.548642 0.468334
v -0.168134 -1.620536 0.195823
v -0.977460 -0.548368 -0.394772
v -0.168108 -1.620419 -0.125610
v -0.000000 0.467223 0.450967
v -0.000000 1.633851 0.171580
v -0.000000 0.466922 -0.412152
v -0.000000 1.634050 -0.149696
v -0.982008 0.408195 0.465142
v -0.191656 1.599468 0.173275
v -0.982173 0.408492 -0.398009
v -0.191594 1.599748 -0.148091
v -0.000000 0.430057 0.487145
v 0.000000 0.199186 1.654697
v 0.000000 -0.419748 0.490565
v -0.000000 -0.118358 1.655699
v -0.981345 0.374611 0.502008
v -0.180047 0.173641 1.656388
v -0.978817 -0.476583 0.503806
v -0.178909 -0.142084 1.658034
v -0.000000 0.430058 -0.490097
v 0.000000 0.199186 -1.663969
v 0.000000 -0.419748 -0.486653
v -0.000000 -0.118359 -1.662909
v -0.981345 0.374611 -0.475257
v -0.180046 0.173641 -1.661180
v -0.978817 -0.476582 -0.473409
v -0.178909 -0.142084 -1.659405
v -2.361541 -0.099091 -0.166349
v -2.361541 0.268335 -0.166349
v -2.361541 0.268335 0.201078
v -2.361541 -0.099091 0.201078
v -2.217913 -0.271480 -0.338737
v -2.217913 0.440724 -0.338737
v -2.217913 0.440724 0.373466
v -2.217913 -0.271480 0.373466
v -5.985444 -0.008259 -0.075517
v -5.985444 0.177504 -0.075517
v -5.985444 0.177504 0.110246
v -5.985444 -0.008259 0.110246
v 0.000000 0.722493 -0.741505
v 0.000000 0.722491 -0.741505
v 0.000000 0.722492 0.734213
v -0.000000 -0.722491 0.741505
v -0.000000 -0.722491 -0.734118
v -3.569509 0.230504 -0.128518
v -4.651646 0.203929 -0.101942
v -4.651645 0.203929 0.136670
v -3.569508 0.230504 0.163246
v -3.569509 -0.061260 0.163246
v -4.651646 -0.034683 0.136670
v -4.651645 -0.034683 -0.101942
v -3.569508 -0.061260 -0.128518
vn -0.1772 -0.0034 -0.9842
vn -0.1620 0.0033 0.9868
vn -0.1260 0.9920 -0.0000
vn -0.1993 -0.9799 -0.0000
vn 1.0000 -0.0000 -0.0000
vn -0.0019 -0.2431 -0.9700
vn -0.7981 -0.6025 -0.0001
vn 0.0294 -0.2281 0.9732
vn -0.0558 0.9984 -0.0000
vn 0.0712 -0.9975 -0.0003
vn -0.0306 0.2220 -0.9746
vn -0.8332 0.5529 0.0003
vn -0.0058 0.2373 0.9714
vn 0.0597 -0.9982 -0.0000
vn -0.1764 0.9843 0.0007
vn 0.0706 -0.9679 0.2410
vn -0.8217 -0.0009 0.5700
vn -0.0652 0.9768 0.2042
vn -0.0142 -0.0031 -0.9999
vn 0.0106 0.0042 0.9999
vn 0.0640 -0.9689 -0.2392
vn -0.8287 -0.0043 -0.5597
vn -0.0712 0.9766 -0.2029
vn 0.0141 0.0031 0.9999
vn -0.0169 -0.0045 -0.9998
vn -0.0222 0.9998 -0.0000
vn -0.0198 0.9998 -0.0000
vn -0.7683 -0.0000 -0.6401
vn -0.7683 0.6401 -0.0000
vn -0.7683 -0.6401 -0.0000
vn -0.7683 -0.0000 0.6401
vn -1.0000 -0.0000 -0.0000
vn -0.0222 -0.9998 -0.0000
vn -0.0198 -0.9998 -0.0000
vn -0.0222 -0.0000 -0.9998
vn -0.0198 -0.0000 -0.9998
vn -0.0222 -0.0000 0.9998
vn -0.0198 -0.0000 0.9998
vn -0.0313 -0.0000 0.9995
vn -0.0280 -0.0000 0.9996
vn -0.0313 -0.0000 -0.9995
vn -0.0280 -0.0000 -0.9996
vn -0.0313 -0.9995 -0.0000
vn -0.0280 -0.9996 -0.0000
vn -0.0313 0.9995 -0.0000
vn -0.0280 0.9996 -0.0000
vt 0.784262 0.169412
vt 0.784262 0.169412
vt 0.784262 0.169412
vt 0.387801 0.137965
vt 0.387801 0.137965
vt 0.387801 0.137965
vt 0.387801 0.137965
vt 0.387801 0.137965
vt 0.387801 0.137965
vt 0.387801 0.137965
vt 0.387801 0.137965
vt 0.387801 0.137965
vt 0.387801 0.137965
vt 0.387801 0.137965
vt 0.387801 0.137965
vt 0.387801 0.137965
vt 0.387801 0.137965
vt 0.387801 0.137965
vt 0.387801 0.137965
vt 0.387801 0.137965
vt 0.387801 0.137965
vt 0.387801 0.137965
vt 0.387801 0.137965
vt 0.387801 0.137965
vt 0.387801 0.137965
vt 0.387801 0.137965
vt 0.387801 0.137965
vt 0.387801 0.137965
vt 0.387801 0.137965
vt 0.387801 0.137965
vt 0.387801 0.137965
vt 0.387801 0.137965
vt 0.387801 0.137965
vt 0.387801 0.137965
vt 0.387801 0.137965
vt 0.784262 0.169412
vt 0.565301 0.230465
vt 0.784262 0.169412
vt 0.565301 0.230465
vt 0.784262 0.169412
vt 0.565301 0.230465
vt 0.784262 0.169412
vt 0.565301 0.230465
vt 0.784262 0.169412
vt 0.784262 0.169412
vt 0.784262 0.169412
vt 0.784262 0.169412
vt 0.587801 0.226090
vt 0.587801 0.226090
vt 0.587801 0.226090
vt 0.587801 0.226090
vt 0.784262 0.169412
vt 0.784262 0.169412
vt 0.784262 0.169412
vt 0.784262 0.169412
vt 0.784262 0.169412
vt 0.565301 0.230465
vt 0.575301 0.227340
vt 0.587801 0.226090
vt 0.575301 0.227340
vt 0.587801 0.226090
vt 0.575301 0.227340
vt 0.565301 0.230465
vt 0.575301 0.227340
vt 0.565301 0.230465
vt 0.575301 0.227340
vt 0.587801 0.226090
vt 0.575301 0.227340
vt 0.587801 0.226090
vt 0.575301 0.227340
vt 0.565301 0.230465
vt 0.575301 0.227340
s 1
usemtl low_poly_material.003
f 48/52/1 3/3/1 40/44/1 41/45/1
f 42/46/2 43/47/2 2/2/2 1/1/2
f 48/52/3 41/45/3 42/46/3 1/1/3
f 40/44/4 3/3/4 2/2/4 43/47/4
f 4/4/5 5/5/5 7/7/5 6/6/5
f 6/6/6 7/7/6 11/11/6 10/10/6
f 10/10/7 11/11/7 9/9/7 8/8/7
f 8/8/8 9/9/8 5/5/8 4/4/8
f 6/6/9 10/10/9 8/8/9 4/4/9
f 11/11/10 7/7/10 5/5/10 9/9/10
f 12/12/5 14/14/5 15/15/5 13/13/5
f 14/14/11 18/18/11 19/19/11 15/15/11
f 18/18/12 16/16/12 17/17/12 19/19/12
f 16/16/13 12/12/13 13/13/13 17/17/13
f 14/14/14 12/12/14 16/16/14 18/18/14
f 19/19/15 17/17/15 13/13/15 15/15/15
f 20/20/5 21/21/5 23/23/5 22/22/5
f 22/22/16 23/23/16 27/27/16 26/26/16
f 26/26/17 27/27/17 25/25/17 24/24/17
f 24/24/18 25/25/18 21/21/18 20/20/18
f 22/22/19 26/26/19 24/24/19 20/20/19
f 27/27/20 23/23/20 21/21/20 25/25/20
f 28/28/5 30/30/5 31/31/5 29/29/5
f 30/30/21 34/34/21 35/35/21 31/31/21
f 34/34/22 32/32/22 33/33/22 35/35/22
f 32/32/23 28/28/23 29/29/23 33/33/23
f 30/30/24 28/28/24 32/32/24 34/34/24
f 35/35/25 33/33/25 29/29/25 31/31/25
f 55/61/26 54/59/26 45/49/27 46/50/27
f 36/36/28 37/38/28 41/45/28 40/44/28
f 37/38/29 38/40/29 42/46/29 41/45/29
f 39/42/30 36/36/30 40/44/30 43/47/30
f 38/40/31 39/42/31 43/47/31 42/46/31
f 45/49/32 44/48/32 47/51/32 46/50/32
f 59/69/33 58/67/33 47/51/34 44/48/34
f 54/59/35 59/69/35 44/48/36 45/49/36
f 58/67/37 55/61/37 46/50/38 47/51/38
f 3/3/32 48/52/32 49/53/32 52/56/32
f 50/54/5 51/55/5 52/56/5 49/53/5
f 1/1/5 2/2/5 51/55/5 50/54/5
f 2/2/32 3/3/32 52/56/32 51/55/32
f 48/52/5 1/1/5 50/54/5 49/53/5
f 39/43/39 38/41/39 56/63/40 57/65/40
f 57/66/40 56/64/40 55/62/37 58/68/37
f 37/39/41 36/37/41 60/71/42 53/57/42
f 53/58/42 60/72/42 59/70/35 54/60/35
f 36/37/43 39/43/43 57/65/44 60/71/44
f 60/72/44 57/66/44 58/68/33 59/70/33
f 38/41/45 37/39/45 53/57/46 56/63/46
f 56/64/46 53/58/46 54/60/26 55/62/26
